<svg width="100" height="100" viewBox="0 0 429 214" fill="none" xmlns="http://www.w3.org/2000/svg"><path d="M0 214h71.376l14.567-39.39-32.775-67.11L0 214ZM189.366 160.75 109.978 1 85.943 55.709 160.96 214H215l-25.634-53.25Z" fill="#9C9C9C"/><path fill-rule="evenodd" clip-rule="evenodd" d="M322 214c59.094 0 107-47.906 107-107S381.094 0 322 0 215 47.906 215 107s47.906 107 107 107Zm0-42c35.899 0 65-29.101 65-65 0-35.898-29.101-65-65-65s-65 29.102-65 65c0 35.899 29.101 65 65 65Z" fill="#9C9C9C"/></svg>