<svg viewBox="0 0 66 13" fill="currentColor" xmlns="http://www.w3.org/2000/svg" color="var(--mui-palette-text-primary)"><path d="M0 12.972h3.993l.815-2.204-1.834-3.754L0 12.972ZM10.594 9.993 6.153 1.056l-1.345 3.06 4.197 8.856h3.023l-1.434-2.979Z"/><path fill-rule="evenodd" clip-rule="evenodd" d="M18.014 12.972a5.986 5.986 0 1 0 0-11.972 5.986 5.986 0 0 0 0 11.972Zm0-2.35a3.636 3.636 0 1 0 0-7.272 3.636 3.636 0 0 0 0 7.272Z"/><path d="M27.822 11.3h5.087v1.186H26.5v-11h1.322V11.3ZM34.97 1.486h6.288v1.216h-2.493v8.575h2.493v1.209h-6.287v-1.209h2.436V2.702h-2.436V1.486ZM50.13 12.486h-1.344l-4.037-8.22-.022 8.22h-1.336v-11h1.343l4.038 8.205.02-8.205h1.337v11ZM54.748 7.379l-1.157 1.39v3.717h-1.35v-11h1.35v5.372l1.008-1.33 3.05-4.042h1.608L55.62 6.299l3.88 6.187h-1.608l-3.144-5.107Z"/><path d="m62.5 4 3-3m0 0h-2.571M65.5 1v2.571" stroke="currentColor"/></svg>