<svg width="49" height="49" fill="none" xmlns="http://www.w3.org/2000/svg"><g id="Frame 309"><rect x="1.179" y=".929" width="47.143" height="47.143" rx="23.571" fill="#AB9AFF"/><rect x="1.179" y=".929" width="47.143" height="47.143" rx="23.571" stroke="#333" stroke-width=".857"/><path id="Vector" d="m38.042 29.04 2.606-.467-2.361-2.643 2.045-1.143-2.587-1.929 1.664-4h-3.64l.956-3.928-3.9 2 1.07-5.178-3.94 3.25-.42-5-2.978 4.498-1.858-6-1.857 6-2.978-4.5-.418 5-3.94-3.25 1.066 5.178-3.9-1.998.957 3.928H9.99l1.664 4-2.587 1.929 2.044 1.143-2.361 2.643 2.606.467-1.791 3.403 2.31.862-.659 2.19 1.873-.413.188 2.7 1.557-.793.141 2.476 1.24-.413s2.195 2.278 6.604 1.12a1.718 1.718 0 0 0 1.154-.977c.23-.537.153-1.196-1.318-1.438-2.592-.426-6.179.074-7.48-3.18a.12.12 0 0 1 .098-.164.12.12 0 0 1 .07.015c1.6.905 5.35 1.723 5.662.011.333-1.824-1.268-2.426-2.174-2.925-.905-.499-5.014-1.831-4.826-4.282.188-2.451 2.865-1.796 3.472-1.308.546.358 5.945 3.679 5.945 3.679S21.465 32.2 24.698 32.2c3.234 0 1.278-2.597 1.278-2.597s5.398-3.322 5.946-3.679c.607-.488 3.282-1.142 3.472 1.308.19 2.449-3.924 3.779-4.828 4.282-.905.503-2.508 1.101-2.173 2.925.314 1.71 4.06.896 5.66-.011a.118.118 0 0 1 .138.015.12.12 0 0 1 .031.134c-1.3 3.254-4.888 2.754-7.48 3.18-1.47.242-1.547.896-1.317 1.438a1.714 1.714 0 0 0 1.152.976c4.411 1.16 6.607-1.119 6.607-1.119l1.24.413.14-2.476 1.557.793.188-2.699 1.874.413-.66-2.191 2.307-.857-1.788-3.408ZM21.25 25.575a1.774 1.774 0 1 1 0-3.548 1.774 1.774 0 0 1 0 3.548Zm6.9 0a1.774 1.774 0 1 1 0-3.548 1.774 1.774 0 0 1 0 3.548Z" fill="#fff"/></g></svg>