<svg width="48" height="48" fill="none" xmlns="http://www.w3.org/2000/svg"><rect width="48" height="48" rx="8" fill="#fff"/><path d="M15.742 19.247h14.605c3.047 0 5.513-2.515 5.513-5.623C35.86 10.515 33.395 8 30.347 8H12.396C11.625 8 11 8.637 11 9.423v14.854" stroke="#000" stroke-width="2.443" stroke-miterlimit="10"/><path d="m21.698 13.133-5.994 6.114 5.994 6.101M24.441 35.602l5.982-6.1-5.982-6.114" stroke="#000" stroke-width="2.443" stroke-miterlimit="10"/><path d="M29.74 23.439c4.49 0 8.131 3.702 8.131 8.28 0 4.566-3.63 8.281-8.118 8.281H12.395c-.77 0-1.395-.637-1.395-1.423v-7.678c0-.787.625-1.424 1.396-1.424h18.027" stroke="#000" stroke-width="2.443" stroke-miterlimit="10"/></svg>