<svg width="16" height="16" fill="none" xmlns="http://www.w3.org/2000/svg"><path d="M5.517 12.87c0 .07-.065.12-.159.12s-.169 0-.169-.12.075-.12.16-.12c.084 0 .168.05.168.12Zm-.937-.15c0 .07 0 .15.131.17.034.018.073.02.108.007a.144.144 0 0 0 .08-.076c0-.07 0-.14-.131-.17-.132-.03-.17 0-.188.07Zm1.331-.05c-.084 0-.14.08-.131.16.01.08.084.11.178.09.094-.02.14-.09.131-.16-.01-.07-.084-.1-.178-.09ZM7.907 0a6.943 6.943 0 0 0-2.881.598c-.913.404-1.74 1-2.432 1.753a7.898 7.898 0 0 0-1.592 2.63 8.29 8.29 0 0 0-.499 3.083 8.677 8.677 0 0 0 1.373 4.838c.92 1.42 2.232 2.5 3.754 3.086.384.07.525-.19.525-.4V13.59s-2.118.5-2.568-.999c0 0-.338-1-.834-1.21 0 0-.694-.519.047-.509.242.035.473.13.675.278.202.147.369.343.487.572.098.205.234.386.4.533.166.146.359.255.566.32a1.49 1.49 0 0 0 1.245-.164c.036-.417.205-.809.478-1.109-1.687-.21-3.392-.47-3.392-3.657a2.69 2.69 0 0 1 .159-1.056c.123-.336.311-.64.553-.893a3.406 3.406 0 0 1 .075-2.238c.637-.22 2.09.89 2.09.89a6.574 6.574 0 0 1 3.795 0s1.453-1.11 2.09-.89c.283.71.31 1.508.075 2.238.25.249.45.55.583.887.134.335.2.697.195 1.062 0 3.197-1.78 3.447-3.467 3.657.17.203.298.44.379.698.08.258.11.53.09.8v2.769c-.001.067.013.134.042.194.029.06.07.112.122.151a.38.38 0 0 0 .36.054c1.52-.581 2.829-1.657 3.744-3.076a8.606 8.606 0 0 0 1.354-4.828 8.46 8.46 0 0 0-.56-3.103 8.05 8.05 0 0 0-1.645-2.63A7.48 7.48 0 0 0 10.82.587 7.09 7.09 0 0 0 7.907 0Zm-4.46 11.402v.17a.107.107 0 0 0 .16 0l-.001-.18c0-.07-.122-.03-.16.01Zm-.329-.27s0 .1.066.13a.08.08 0 0 0 .102.025.086.086 0 0 0 .029-.025s0-.1-.066-.13c-.065-.03-.112-.03-.13 0Zm.937 1.18v.209c0 .07.16.08.197 0 .038-.08 0-.14 0-.21 0-.07-.122-.05-.16 0h-.037Zm-.346-.49v.2c0 .08.13.11.178.08a.166.166 0 0 0 0-.21c-.047-.08-.122-.11-.178-.07Z" fill="#fff"/></svg>