<svg width="52" height="52" fill="none" xmlns="http://www.w3.org/2000/svg"><path fill-rule="evenodd" clip-rule="evenodd" d="M26 41.727c-8.686 0-15.727-7.041-15.727-15.727S17.314 10.273 26 10.273 41.727 17.314 41.727 26 34.686 41.727 26 41.727Z" fill="#fff"/><path fill-rule="evenodd" clip-rule="evenodd" d="M10.273 26c0 8.686 7.041 15.727 15.727 15.727S41.727 34.686 41.727 26 34.686 10.273 26 10.273 10.273 17.314 10.273 26ZM.006 26C.006 40.356 11.644 51.993 26 51.993S51.994 40.356 51.994 26C51.994 11.644 40.356.006 26 .006S.006 11.644.006 26Z" fill="url('#paint0_radial_106_19')"/><path fill-rule="evenodd" clip-rule="evenodd" d="M2.029 36.06c4.45 10.642 15.468 17.083 26.901 15.771-3.564-2.477-21.064-20.143-4.477-27.753C42.599 15.752 41.465 6.189 37.133 2.51A25.89 25.89 0 0 0 19.273.892a25.872 25.872 0 0 0-12.53 7.645C3.646 12.035 1.49 16.296.532 20.769a25.817 25.817 0 0 0-.272 8.879c.149.937.357 1.868.626 2.787A23.237 23.237 0 0 0 2.03 36.06Z" fill="url('#paint1_linear_106_19')"/><path fill-rule="evenodd" clip-rule="evenodd" d="M36.88 2.392c3.833 2.593 13.284 10.255-2.837 19.5-17.66 10.129-2.875 25.826 7.034 25.29 8.588-6.114 12.92-17.128 10.03-27.91-2.079-7.761-7.46-13.757-14.228-16.88Z" fill="url('#paint2_linear_106_19')"/><defs><linearGradient id="paint1_linear_106_19" x1="19.909" y1="66.108" x2="19.909" y2="0" gradientUnits="userSpaceOnUse"><stop stop-color="#4844EC"/><stop offset="1" stop-color="#766AFF"/></linearGradient><linearGradient id="paint2_linear_106_19" x1="66.652" y1="30.136" x2="11.163" y2="30.136" gradientUnits="userSpaceOnUse"><stop stop-color="#4844EC"/><stop offset="1" stop-color="#766AFF"/></linearGradient><radialGradient id="paint0_radial_106_19" cx="0" cy="0" r="1" gradientUnits="userSpaceOnUse" gradientTransform="matrix(29.44514 -16.74022 16.02937 28.19479 26 26)"><stop offset=".5" stop-color="#B8B8FF"/><stop offset="1" stop-color="#DCDCFF"/></radialGradient></defs></svg>