<svg width="11" height="18" fill="none" xmlns="http://www.w3.org/2000/svg"><g clip-path="url('#clip0_615_1950')"><path fill-rule="evenodd" clip-rule="evenodd" d="m5.5 1 2.879 1.413v7.717L11 11.416V14.3L5.5 17l-2.879-1.413v-2.572L0 11.729v-8.03L5.5 1ZM3.137 13.015l2.105-1.033v4.325l-2.105-1.033v-2.26Zm2.62 3.292 4.727-2.319v-2.006l-2.62 1.286V8.123L5.757 9.156v7.151Zm2.106-8.75V2.98L3.137 5.298v7.15l2.105-1.032V8.844l2.621-1.287ZM2.88 4.858 7.544 2.57 5.5 1.566.835 3.856l2.044 1.003ZM.516 4.266v7.15L2.62 12.45V5.298L.516 4.265Zm9.65 7.307-1.787.877v-1.753l1.786.876Zm-3.753-6.68v2.014l-1.826.896V5.789l1.826-.896Zm-1.31 1.21v.88l.794-.39v-.88l-.794.39Z" fill="#92D5F6" stroke="#92D5F6" stroke-width=".5" stroke-miterlimit="10"/></g><defs><clipPath id="clip0_615_1950"><path fill="#fff" d="M0 0h11v18H0z"/></clipPath></defs></svg>