<svg width="48" height="48" fill="none" xmlns="http://www.w3.org/2000/svg"><g filter="url('#filter0_d_380_83')"><mask id="mask0_380_83" style="mask-type:luminance" maskUnits="userSpaceOnUse" x="8" y="9" width="32" height="31"><path d="M8.656 9.26h31.136v30.162H8.656V9.26Z" fill="#fff"/></mask><g mask="url('#mask0_380_83')"><mask id="mask1_380_83" style="mask-type:luminance" maskUnits="userSpaceOnUse" x="8" y="9" width="32" height="31"><path fill-rule="evenodd" clip-rule="evenodd" d="M26.922 13.635a10.726 10.726 0 0 0-4.042-.791c-.76 0-1.52.083-2.26.245a99.605 99.605 0 0 0-3.224-2.745 14.411 14.411 0 0 1 8.14-.839 14.29 14.29 0 0 1 7.256 3.724 13.88 13.88 0 0 1 3.968 7.047 13.768 13.768 0 0 1-.635 8.037 153.416 153.416 0 0 0-2.875-3.058 10.277 10.277 0 0 0-.61-5.99 10.4 10.4 0 0 0-2.291-3.374c-.98-.964-2.14-1.73-3.427-2.256Zm-16.714-3.177c.709-.703 7.854 5.193 15.948 13.167 8.1 7.974 14.084 15.01 13.37 15.708-.443.443-3.417-1.708-7.563-5.333a14.342 14.342 0 0 1-9.843 3.214 14.304 14.304 0 0 1-9.438-4.23 13.89 13.89 0 0 1-4-9.427 13.881 13.881 0 0 1 3.573-9.588c-1.552-1.948-2.333-3.235-2.047-3.51Zm7.058 21.604a10.715 10.715 0 0 0 5.614 1.589 10.609 10.609 0 0 0 6.36-2.099 209.172 209.172 0 0 1-5.662-5.385c-3.51-3.454-6.614-6.73-8.958-9.391a10.276 10.276 0 0 0-1.255 10.995 10.469 10.469 0 0 0 3.9 4.291Z" fill="#fff"/></mask><g mask="url('#mask1_380_83')"><path d="M8.656 9.26v30.162h31.136V9.26H8.656Z" fill="url('#paint0_linear_380_83')"/></g></g></g><defs><linearGradient id="paint0_linear_380_83" x1="4.368" y1="13.482" x2="34.778" y2="44.359" gradientUnits="userSpaceOnUse"><stop stop-color="#D0DEFF"/><stop offset=".11" stop-color="#D9E4FF"/><stop offset=".31" stop-color="#fff"/><stop offset=".475" stop-color="#E8EBF7"/><stop offset=".765" stop-color="#8496D5"/><stop offset=".795" stop-color="#7085CE"/><stop offset=".9" stop-color="#596FC2"/></linearGradient><filter id="filter0_d_380_83" x="7.679" y="8.26" width="32.905" height="32.13" filterUnits="userSpaceOnUse" color-interpolation-filters="sRGB"><feFlood flood-opacity="0" result="BackgroundImageFix"/><feColorMatrix in="SourceAlpha" values="0 0 0 0 0 0 0 0 0 0 0 0 0 0 0 0 0 0 127 0" result="hardAlpha"/><feOffset/><feGaussianBlur stdDeviation=".5"/><feComposite in2="hardAlpha" operator="out"/><feColorMatrix values="0 0 0 0 0 0 0 0 0 0 0 0 0 0 0 0 0 0 0.25 0"/><feBlend in2="BackgroundImageFix" result="effect1_dropShadow_380_83"/><feBlend in="SourceGraphic" in2="effect1_dropShadow_380_83" result="shape"/></filter></defs></svg>