<svg width="194" height="173" xmlns="http://www.w3.org/2000/svg"><g id="RedStone_logo_tylko-znak" stroke="none" stroke-width="1" fill="none" fill-rule="evenodd"><g id="Group-3" transform="translate(13 17)" fill="#FD627A"><path d="M133.61 65.468 112.8 31.195l10.778-17.565 31.477 51.838H133.61Zm-70.84 48.167h42.075l10.503 17.144H52.456l10.314-17.144Zm42.06-87.078H62.72L52.427 9.373h62.947L104.83 26.557Zm-.032 77.856h-42.09L41.869 70.096 62.708 35.78h42.09l20.838 34.317-20.838 34.317ZM44.253 13.667l10.477 17.49-20.829 34.3H12.805l31.448-51.79ZM12.795 74.679h21.072l20.887 34.397-10.486 17.433-31.473-51.83Zm110.77 51.866-10.758-17.56L133.63 74.69h21.42l-31.487 51.855Zm43.62-58.863-39.66-65.314a4.608 4.608 0 0 0-3.939-2.216H44.268c-1.61 0-3.104.84-3.939 2.216L.67 67.682a4.612 4.612 0 0 0 0 4.787l39.659 65.314A4.606 4.606 0 0 0 44.268 140h79.318c1.61 0 3.103-.84 3.939-2.217l39.66-65.314a4.61 4.61 0 0 0 0-4.787Z" id="Fill-1"/><path d="M107.606 77.278a4.608 4.608 0 0 0-6.36 1.428L93.09 91.591a4.613 4.613 0 0 0 3.889 7.078c1.526 0 3.02-.758 3.897-2.144l8.157-12.885c1.362-2.15.723-5-1.427-6.362" id="Fill-4"/><path d="M114.31 65.413a4.607 4.607 0 0 0-6.308 1.637l-.6 1.02a4.612 4.612 0 0 0 3.968 6.95c1.58 0 3.118-.813 3.976-2.274l.6-1.02a4.613 4.613 0 0 0-1.635-6.313" id="Fill-6"/></g></g></svg>