<svg width="36" height="36" viewBox="0 0 36 29" xmlns="http://www.w3.org/2000/svg"><path d="M34.476 17.02C34.476 7.62 26.84 0 17.42 0 8 0 0 7.62 0 17.02v10.623A1.352 1.352 0 0 0 1.36 29h1.942a1.357 1.357 0 0 0 1.36-1.357v-8.824c0-.75.609-1.357 1.36-1.357h2.766c.75 0 1.36.608 1.36 1.357v8.824A1.352 1.352 0 0 0 11.508 29h1.942a1.357 1.357 0 0 0 1.36-1.357v-2.679a7.5 7.5 0 0 1 3.758-6.497 7.53 7.53 0 0 1 7.518 0 7.499 7.499 0 0 1 3.759 6.497v2.679c0 .75.608 1.357 1.36 1.357h1.919c.75 0 1.36-.608 1.36-1.357l-.008-10.623ZM9.817 13.397c-.254.41-.603.753-1.017 1a2.857 2.857 0 0 1-2.374.214 1.286 1.286 0 0 1-.323-.152 2.794 2.794 0 0 1 0-4.9c.105-.067.219-.118.338-.151a2.836 2.836 0 0 1 2.926.651c.542.5.849 1.203.847 1.939-.001.494-.138.978-.397 1.4Z" fill="current"/><path d="M35.992 17.02C35.992 7.62 28.356 0 18.937 0c-9.42 0-17.42 7.62-17.42 17.02v10.623A1.352 1.352 0 0 0 2.877 29h1.942a1.357 1.357 0 0 0 1.36-1.357v-8.824c0-.75.608-1.357 1.36-1.357h2.765c.751 0 1.36.608 1.36 1.357v8.824A1.351 1.351 0 0 0 13.024 29h1.942a1.357 1.357 0 0 0 1.36-1.357v-2.679a7.5 7.5 0 0 1 3.759-6.497 7.531 7.531 0 0 1 7.517 0 7.5 7.5 0 0 1 3.76 6.497v2.679c0 .75.608 1.357 1.359 1.357h1.92c.75 0 1.359-.608 1.359-1.357l-.008-10.623Zm-24.658-3.623c-.255.41-.604.753-1.018 1a2.857 2.857 0 0 1-2.374.214 1.285 1.285 0 0 1-.322-.152 2.794 2.794 0 0 1 0-4.9c.104-.067.218-.118.338-.151a2.836 2.836 0 0 1 2.925.651c.542.5.85 1.203.847 1.939 0 .494-.138.978-.396 1.4Z" fill="current"/></svg>