<svg xmlns="http://www.w3.org/2000/svg" version="1.1" id="Layer_1" x="0" y="0" viewBox="0 0 970.2 287.8" style="enable-background:new 0 0 970.2 287.8" xml:space="preserve"><path d="m144.5 220.1-11-27.8H78.7l-10.4 27.8H31.1L90.5 78.5h33.2l58.8 141.6h-38zm-38-103.8-18 48.6h35.6l-17.6-48.6zM257.1 147.5c-1.5-.4-2.9-.7-4.3-.8-1.4-.1-2.8-.2-4.1-.2-4.4 0-8.1.8-11.1 2.4-3 1.6-5.4 3.5-7.2 5.8-1.8 2.3-3.1 4.7-3.9 7.4-.8 2.7-1.2 5-1.2 7v51.1h-32.8v-99.5h31.6v14.4h.4c2.5-5.1 6.1-9.3 10.8-12.5 4.7-3.2 10.1-4.8 16.2-4.8 1.3 0 2.6.1 3.9.2 1.3.1 2.3.3 3.1.6l-1.4 28.9z"/><path d="m280.6 145.3 27 27 43 43 9.9 9.9c9.5 9.5 25.7 9.5 35.2 0 5.3-5.3 11.2-10.2 16-16C449.3 164 518.1 59.4 518.2 59.3c9.2-9.2-28.9-40.4-38.8-30.6-5.3 5.3-85.7 127.9-99.1 141.3-6.5 6.5-13.2 12.9-19.6 19.6l-.3.3h35.2l-27-27-43-43-9.9-9.9c-9.1-9.1-44.9 25.5-35.1 35.3z" style="fill:#4d9bcc"/><path d="M586.3 171.3v4c0 1.3-.1 2.6-.2 3.8H514c.3 2.8 1.1 5.3 2.5 7.6s3.2 4.2 5.4 5.9c2.2 1.7 4.7 3 7.4 3.9 2.7.9 5.6 1.4 8.5 1.4 5.2 0 9.6-1 13.2-2.9 3.6-1.9 6.5-4.4 8.8-7.5l22.8 14.4c-4.7 6.8-10.8 12-18.5 15.7-7.7 3.7-16.6 5.5-26.7 5.5-7.5 0-14.5-1.2-21.2-3.5-6.7-2.3-12.5-5.7-17.5-10.2-5-4.5-8.9-10-11.8-16.5-2.9-6.5-4.3-14-4.3-22.4 0-8.1 1.4-15.5 4.2-22.1 2.8-6.6 6.6-12.2 11.4-16.8 4.8-4.6 10.5-8.2 17-10.7s13.6-3.8 21.2-3.8c7.3 0 14.1 1.2 20.2 3.7s11.4 6 15.8 10.7c4.4 4.7 7.8 10.3 10.3 17 2.4 6.7 3.6 14.3 3.6 22.8zm-30.2-12.6c0-5.2-1.6-9.7-4.9-13.4-3.3-3.7-8.2-5.6-14.7-5.6-3.2 0-6.1.5-8.8 1.5-2.7 1-5 2.4-7 4.1-2 1.7-3.6 3.8-4.8 6.1-1.2 2.3-1.9 4.8-2 7.3h42.2zM666.3 147.3c-1.5-.4-2.9-.7-4.3-.8-1.4-.1-2.8-.2-4.1-.2-4.4 0-8.1.8-11.1 2.4-3 1.6-5.4 3.5-7.2 5.8-1.8 2.3-3.1 4.7-3.9 7.4-.8 2.7-1.2 5-1.2 7V220h-32.8v-99.5h31.6v14.4h.4c2.5-5.1 6.1-9.3 10.8-12.5 4.7-3.2 10.1-4.8 16.2-4.8 1.3 0 2.6.1 3.9.2 1.3.1 2.3.3 3.1.6l-1.4 28.9zM716.5 88.5c0 2.5-.5 4.9-1.5 7.1-1 2.2-2.3 4.1-4 5.7-1.7 1.6-3.7 2.9-6 3.8-2.3.9-4.8 1.4-7.3 1.4-5.3 0-9.8-1.8-13.4-5.3-3.6-3.5-5.4-7.8-5.4-12.7 0-2.4.5-4.7 1.4-6.9.9-2.2 2.3-4.1 4-5.7 1.7-1.6 3.7-2.9 6-3.9s4.7-1.5 7.4-1.5c2.5 0 5 .5 7.3 1.4 2.3.9 4.3 2.2 6 3.8 1.7 1.6 3 3.5 4 5.7s1.5 4.6 1.5 7.1zm-35.2 131.4v-99.6h32.8v99.6h-32.8zM801.9 92.9c-1.2-.4-2.6-.7-4.2-1-1.6-.3-3.2-.4-4.8-.4-3.1 0-5.5.5-7.4 1.6-1.9 1.1-3.3 2.5-4.4 4.3-1.1 1.8-1.8 3.8-2.2 6.1-.4 2.3-.6 4.5-.6 6.8v10h22.2v24.4h-22.2v75.2h-32.8v-75.2h-18.2v-24.4h18.2v-9.6c0-6.1.7-12 2-17.5s3.6-10.4 6.9-14.6c3.3-4.2 7.7-7.5 13.2-10 5.5-2.5 12.4-3.7 20.7-3.7 2.8 0 5.6.2 8.3.5 2.7.3 5.2.8 7.5 1.5l-2.2 26zM879.1 234.9c-2 5.2-4.2 9.8-6.7 13.9s-5.4 7.5-8.8 10.4c-3.4 2.9-7.4 5-12 6.5s-10 2.2-16.3 2.2c-3.1 0-6.2-.2-9.5-.6-3.3-.4-6.1-.9-8.5-1.6l3.6-27.6c1.6.5 3.4 1 5.3 1.3 1.9.3 3.7.5 5.3.5 5.1 0 8.7-1.2 11-3.5 2.3-2.3 4.2-5.6 5.8-9.9l3.2-8.2-41.6-98h36.4l22.2 64h.6l19.8-64h34.8l-44.6 114.6z"/></svg>