<svg width="27" height="27" xmlns="http://www.w3.org/2000/svg" color="var(--mui-palette-text-primary)"><path d="M11.105 6.141c.772-.12 1.572-.182 2.395-.182.77 0 1.52.055 2.247.16a2.24 2.24 0 0 0-.56-1.034 16.696 16.696 0 0 0-3.534.017c-.269.29-.462.646-.548 1.04Z" fill="currentColor"/><path d="M10.065 6.34c.032-.367.128-.716.277-1.037C4.41 6.46 0 10.81 0 16c0 6.075 6.044 11 13.5 11S27 22.075 27 16c0-5.235-4.488-9.616-10.5-10.727.153.32.252.668.288 1.034C22.181 7.481 26 11.47 26 16c0 5.405-5.438 10.041-12.5 10.041S1 21.405 1 16c0-4.489 3.75-8.447 9.065-9.66Z" fill="currentColor"/><path d="M22.617.117c.734-.372 1.64.198 1.53.938a37.256 37.256 0 0 0-.382 4.267c-.027.895.25 1.752.607 2.475.372.755-.356 1.8-1.271 1.641-2.542-.443-4.494-.965-6.63-1.713a2.68 2.68 0 0 0 .332-1.29c0-.823-.378-1.567-.989-2.106 2.133-1.62 4.08-2.83 6.803-4.212ZM10.472 4.997c-2.738-1.362-5.13-2.108-8.396-2.98-.758-.202-1.465.42-1.242 1.09l.964 2.9c.248.745.334 1.525.254 2.299l-.251 2.428c-.069.664.692 1.152 1.385.886 3.1-1.194 5.255-2.16 7.462-3.497a2.728 2.728 0 0 1-.595-1.688c0-.522.152-1.012.42-1.438ZM15.803 6.435c0 1.157-1.063 2.095-2.375 2.095s-2.375-.938-2.375-2.095c0-1.157 1.063-2.095 2.375-2.095s2.375.938 2.375 2.095Z" fill="#EBB9CE"/><mask id="path-3-inside-1_1_277" fill="currentColor"><path fill-rule="evenodd" clip-rule="evenodd" d="M8.707 14c.316 0 .572.236.572.527v.956c0 .29-.256.527-.572.527-.316 0-.572-.236-.572-.527v-.956c0-.291.256-.527.572-.527Zm2.596.226c.265.158.341.484.17.728l-.572.815a.601.601 0 0 1-.79.156.503.503 0 0 1-.17-.728l.572-.815a.601.601 0 0 1 .79-.156Zm-5.193 0a.601.601 0 0 1 .79.156l.643.912a.502.502 0 0 1-.169.728.601.601 0 0 1-.79-.155l-.642-.912a.502.502 0 0 1 .168-.729Z"/><path d="M5 16.237c.003.529.578.889 1.123.722.846-.259 1.607-.428 2.378-.486 1.03-.078 2.075.044 3.364.42.553.16 1.138-.209 1.135-.744a.742.742 0 0 0-.532-.695c-2.633-.838-4.31-.72-6.911.065a.757.757 0 0 0-.557.718Z"/></mask><path fill-rule="evenodd" clip-rule="evenodd" d="M8.707 14c.316 0 .572.236.572.527v.956c0 .29-.256.527-.572.527-.316 0-.572-.236-.572-.527v-.956c0-.291.256-.527.572-.527Zm2.596.226c.265.158.341.484.17.728l-.572.815a.601.601 0 0 1-.79.156.503.503 0 0 1-.17-.728l.572-.815a.601.601 0 0 1 .79-.156Zm-5.193 0a.601.601 0 0 1 .79.156l.643.912a.502.502 0 0 1-.169.728.601.601 0 0 1-.79-.155l-.642-.912a.502.502 0 0 1 .168-.729Z" fill="currentColor"/><path d="M5 16.237c.003.529.578.889 1.123.722.846-.259 1.607-.428 2.378-.486 1.03-.078 2.075.044 3.364.42.553.16 1.138-.209 1.135-.744a.742.742 0 0 0-.532-.695c-2.633-.838-4.31-.72-6.911.065a.757.757 0 0 0-.557.718Z" fill="currentColor"/><path fill-rule="evenodd" clip-rule="evenodd" d="M8.707 14c.316 0 .572.236.572.527v.956c0 .29-.256.527-.572.527-.316 0-.572-.236-.572-.527v-.956c0-.291.256-.527.572-.527Zm2.596.226c.265.158.341.484.17.728l-.572.815a.601.601 0 0 1-.79.156.503.503 0 0 1-.17-.728l.572-.815a.601.601 0 0 1 .79-.156Zm-5.193 0a.601.601 0 0 1 .79.156l.643.912a.502.502 0 0 1-.169.728.601.601 0 0 1-.79-.155l-.642-.912a.502.502 0 0 1 .168-.729Z" stroke="currentColor" stroke-width="2" mask="url('#path-3-inside-1_1_277')"/><path d="M5 16.237c.003.529.578.889 1.123.722.846-.259 1.607-.428 2.378-.486 1.03-.078 2.075.044 3.364.42.553.16 1.138-.209 1.135-.744a.742.742 0 0 0-.532-.695c-2.633-.838-4.31-.72-6.911.065a.757.757 0 0 0-.557.718Z" stroke="currentColor" stroke-width="2" mask="url('#path-3-inside-1_1_277')"/><path fill-rule="evenodd" clip-rule="evenodd" d="M20.001 14c.316-.002.573.233.575.524l.006.956c.002.29-.253.528-.569.53-.315.001-.573-.233-.574-.524l-.006-.956c-.002-.291.253-.528.568-.53Zm2.598.213a.503.503 0 0 1 .174.727l-.567.818a.601.601 0 0 1-.789.16.503.503 0 0 1-.174-.727l.567-.818a.601.601 0 0 1 .789-.16Zm-5.194.027a.601.601 0 0 1 .792.15l.648.91c.173.243.1.57-.164.729a.602.602 0 0 1-.792-.151l-.647-.909a.502.502 0 0 1 .163-.73Z" fill="currentColor"/><path d="M16 16.237c.003.529.578.889 1.123.722.846-.259 1.607-.428 2.378-.486 1.03-.078 2.075.044 3.364.42.554.16 1.138-.209 1.135-.744a.742.742 0 0 0-.532-.695c-2.633-.838-4.31-.72-6.912.065a.757.757 0 0 0-.556.718Z" fill="currentColor"/><path fill-rule="evenodd" clip-rule="evenodd" d="M17.123 16.959c-.545.166-1.12-.193-1.123-.722a.757.757 0 0 1 .556-.718c2.603-.785 4.28-.903 6.912-.065.32.102.53.383.532.695.003.535-.581.904-1.135.743-1.288-.375-2.335-.497-3.364-.42-.771.059-1.532.228-2.378.487Z" fill="currentColor"/></svg>