<svg width="16" height="12" fill="none" xmlns="http://www.w3.org/2000/svg"><path d="M13.196 1.006A12.08 12.08 0 0 0 10.103 0a7.53 7.53 0 0 0-.395.85 10.93 10.93 0 0 0-3.425 0A9.263 9.263 0 0 0 5.881 0a12.08 12.08 0 0 0-3.094 1.006C.83 4.066.301 7.051.562 9.988A12.229 12.229 0 0 0 4.358 12c.307-.434.576-.9.812-1.382a7.27 7.27 0 0 1-1.278-.647c.11-.081.213-.171.316-.253 2.47 1.194 5.145 1.194 7.583 0a4.8 4.8 0 0 0 .316.253 8.213 8.213 0 0 1-1.278.647c.236.482.505.948.812 1.382a12.143 12.143 0 0 0 3.796-2.012c.308-3.411-.528-6.364-2.225-8.982h-.016ZM5.502 8.188c-.742 0-1.35-.712-1.35-1.587s.592-1.587 1.35-1.587c.757 0 1.357.712 1.35 1.587 0 .867-.593 1.587-1.35 1.587Zm4.98 0c-.742 0-1.35-.712-1.35-1.587s.592-1.587 1.35-1.587c.757 0 1.357.712 1.349 1.587 0 .867-.592 1.587-1.35 1.587Z" fill="#fff"/></svg>