<svg width="850" height="300" fill="none" xmlns="http://www.w3.org/2000/svg"><path d="M318.7 157.299h39.1c0 4-.2 7.7-.5 11s-1 6.3-2 9.1c-1.4 4-3.3 7.5-5.7 10.6-2.4 3-5.3 5.6-8.5 7.6s-6.8 3.6-10.7 4.6c-3.9 1.1-8 1.6-12.3 1.6-5.9 0-11.3-1-16.2-2.9-4.8-1.9-9-4.7-12.5-8.1-3.5-3.6-6.2-7.8-8.1-12.7-1.9-5-2.9-10.4-2.9-16.4 0-5.9.9-11.3 2.8-16.2 1.9-5 4.7-9.2 8.1-12.7 3.6-3.5 7.8-6.2 12.8-8.1 5-1.9 10.5-2.9 16.6-2.9 7.9 0 14.8 1.7 20.8 5.1 6 3.4 10.7 8.7 14.2 15.9l-18.7 7.7c-1.7-4.2-4-7.1-6.8-8.9-2.7-1.8-5.9-2.7-9.4-2.7-2.9 0-5.6.6-8 1.7-2.4 1.1-4.5 2.6-6.2 4.7-1.7 2-3 4.5-4 7.3-.9 2.9-1.4 6.1-1.4 9.6 0 3.2.4 6.2 1.2 8.9.9 2.7 2.1 5.1 3.8 7.1 1.7 2 3.8 3.6 6.2 4.7 2.5 1.1 5.4 1.6 8.6 1.6 1.9 0 3.8-.2 5.6-.6 1.8-.5 3.4-1.2 4.8-2.1 1.5-1 2.7-2.3 3.6-3.8.9-1.5 1.6-3.4 1.9-5.6h-16.2v-15.1Zm136.3-17.5v62h-21v-62h-17v-18h55v18h-17Zm90 9.4c-4.6-5.6-10.2-8.4-16.9-8.4-3 0-5.7.5-8.3 1.6-2.5 1.1-4.6 2.6-6.5 4.4-1.8 1.8-3.3 4-4.3 6.6-1 2.6-1.5 5.3-1.5 8.3 0 3 .5 5.8 1.5 8.4 1.1 2.6 2.5 4.8 4.3 6.7 1.9 1.9 4.1 3.4 6.6 4.4 2.5 1.1 5.2 1.6 8.1 1.6 6.3 0 12-2.7 17-8.1v23.4l-2 .7c-3 1.1-5.8 1.8-8.5 2.3-2.6.5-5.2.8-7.8.8-5.2 0-10.3-1-15.1-2.9-4.8-2-9-4.8-12.7-8.4-3.6-3.6-6.6-7.9-8.8-12.8-2.2-5-3.3-10.4-3.3-16.2 0-5.8 1.1-11.2 3.2-16 2.2-4.9 5.1-9.1 8.8-12.6 3.7-3.6 8-6.3 12.8-8.3 4.8-2 9.9-3 15.2-3 3 0 6 .3 8.9 1 3 .6 6.1 1.6 9.3 2.9v23.6Zm41.2 12.6c0 3 .6 5.8 1.7 8.4 1.1 2.6 2.7 4.8 4.6 6.7 1.9 1.9 4.2 3.4 6.8 4.4 2.6 1 5.4 1.5 8.3 1.5 2.9 0 5.6-.5 8.2-1.5 2.6-1.1 4.9-2.6 6.9-4.4 2-1.9 3.6-4.1 4.7-6.7 1.1-2.6 1.7-5.3 1.7-8.4 0-3.1-.6-5.8-1.7-8.4-1.1-2.6-2.7-4.8-4.7-6.7-1.9-1.9-4.2-3.3-6.9-4.3-2.6-1.1-5.3-1.6-8.2-1.6-2.9 0-5.6.5-8.3 1.6-2.6 1-4.8 2.5-6.8 4.3-1.9 1.9-3.5 4.1-4.6 6.7-1.1 2.6-1.7 5.4-1.7 8.4Zm-20.6 0c0-5.6 1-10.9 3.1-15.7 2.1-4.9 5-9.2 8.7-12.8 3.7-3.6 8.1-6.5 13.2-8.5 5.2-2.1 10.9-3.1 17-3.1s11.8 1 16.9 3.1c5.2 2 9.6 4.8 13.3 8.5 3.8 3.6 6.7 7.9 8.8 12.8 2.1 4.8 3.1 10.1 3.1 15.7s-1 10.9-3.1 15.8c-2.1 4.8-5 9.1-8.8 12.7-3.7 3.6-8.1 6.5-13.3 8.6-5.2 2-10.8 3-16.9 3-6.2 0-11.9-1-17-3-5.1-2.1-9.5-4.9-13.2-8.6-3.7-3.6-6.6-7.9-8.7-12.7-2.1-4.9-3.1-10.1-3.1-15.8Zm125.4-40v80h-21v-80h21Zm-294 0v80h-21v-80h21Zm316 80v-80h20l39 48.9v-48.9h21v80h-20.2l-38.8-48.9v48.9h-21Z" fill="#0E0333"/><path fill-rule="evenodd" clip-rule="evenodd" d="M197.933 126.436c6.956 9.75 10.732 21.59 10.633 33.529 0 11.74-3.776 23.48-10.633 33.031l14.508 11.043c9.241-12.735 14.309-28.255 14.309-43.975.1-16.615-5.366-32.931-15.402-46.064l-8.32 7.5-5.095 4.936Z" fill="#15EBB7"/><path fill-rule="evenodd" clip-rule="evenodd" d="m225.359 213.821-48.79-37.11c3.478-4.577 5.465-10.148 5.763-15.919.199-5.77-1.291-11.441-4.372-16.316l23.352-21.092 24.445-22.883c1.59-1.493 1.689-4.08.099-5.671l-3.378-3.383c-17.39-17.61-40.841-27.858-65.485-28.653l.1-13.432c.099-.895 0-1.79-.199-2.686-.298-.895-.696-1.691-1.292-2.388-.596-.696-1.292-1.194-2.186-1.592a5.792 5.792 0 0 0-2.584-.596c-.894 0-1.788.198-2.583.596-.795.398-1.59.896-2.186 1.592-.597.697-1.094 1.493-1.292 2.289-.298.895-.398 1.79-.199 2.686l-.099 13.83c-5.863.596-11.726 1.69-17.39 3.382l.099-17.212c.1-.896 0-1.791-.198-2.686-.298-.896-.696-1.692-1.292-2.388-.596-.697-1.292-1.194-2.186-1.592a5.795 5.795 0 0 0-2.584-.597c-.894 0-1.789.199-2.583.597-.795.398-1.59.895-2.187 1.592-.596.696-1.093 1.492-1.291 2.288-.299.896-.398 1.79-.199 2.686l-.298 21.988a96.684 96.684 0 0 0-46.604 44.174c-10.037 19.6-13.217 42.085-8.844 63.674a97.203 97.203 0 0 0 32.89 55.218c16.894 14.127 38.159 22.087 60.119 22.485l71.049.298a3.989 3.989 0 0 0 3.975-3.98v-35.916a4.2 4.2 0 0 0-1.59-3.283Zm-72.042 25.569a79.936 79.936 0 0 1-48.294-16.615 80.062 80.062 0 0 1-28.22-42.682c-4.472-16.913-3.18-34.921 3.477-51.038 6.757-16.118 18.582-29.649 33.786-38.404l-.1 26.166c-.099.896 0 1.791.199 2.686.298.896.696 1.692 1.292 2.388.596.697 1.292 1.194 2.186 1.592a5.791 5.791 0 0 0 2.584.597 5.79 5.79 0 0 0 2.583-.597c.795-.398 1.59-.895 2.186-1.592.596-.696 1.093-1.492 1.292-2.288.298-.895.398-1.791.199-2.686l.099-32.136c8.745-3.184 17.986-4.676 27.327-4.676a78.555 78.555 0 0 1 47.498 16.018c.994.796 1.093 2.189.199 3.084l-37.164 34.126c-3.379-1.393-7.055-2.189-10.732-2.189-4.074 0-8.148.796-11.924 2.487-3.776 1.692-7.056 4.179-9.739 7.263-2.682 3.084-4.67 6.765-5.862 10.646a27.893 27.893 0 0 0-.895 12.137c.597 4.08 1.988 7.96 4.174 11.442 2.186 3.482 5.167 6.367 8.546 8.656 3.478 2.188 7.353 3.681 11.427 4.278 4.074.597 8.248.298 12.123-.896l47.499 36.116c.497.398.795.994.795 1.591l-.1 12.735c0 1.095-.894 1.99-1.987 1.99l-54.454-.199Zm11.626-79.593c0 2.189-.696 4.378-1.888 6.268-1.292 1.891-2.981 3.283-5.068 4.179-2.087.895-4.372 1.094-6.459.597-2.087-.498-4.174-1.493-5.764-3.084-1.589-1.592-2.683-3.582-3.08-5.771-.397-2.189-.199-4.477.696-6.467.894-2.089 2.285-3.78 4.173-5.074 1.888-1.194 4.074-1.89 6.26-1.89 2.981 0 5.863 1.194 7.95 3.383 1.987 1.989 3.18 4.775 3.18 7.859Z" fill="#0E0333"/></svg>