<svg xmlns="http://www.w3.org/2000/svg" width="20" height="20" fill="none"><path d="M17.587 12.406c-.15.234-.3.451-.467.668a6.42 6.42 0 0 1-.786.852 5.755 5.755 0 0 1-3.726 1.387c-.835 0-1.62-.184-2.339-.501-.267-1.22-.618-2.84-.885-4.094 0-.016 0-.033-.017-.05.25.218.535.401.836.535.417.184.885.3 1.386.3h.251c.05 0 .1 0 .167-.016.234-.017.434-.067.652-.15a2.46 2.46 0 0 0 .919-.585c.735-.719.985-1.587.768-2.59-.067-.334-.217-.635-.4-.919a3.033 3.033 0 0 0-1.12-.935c-1.003-.452-2.222-.251-3.008.534-.584.585-.852 1.27-.802 2.055v7.569h.017v1.62c0 .068-.017.1-.1.1h-4.01c-.1 0-.1-.032-.1-.116 0-2.155-.017-4.31-.017-6.466V8.429c0-.167.017-.334.033-.5.05-.418.134-.836.268-1.237.15-.485.35-.953.618-1.387.2-.35.434-.685.702-1.002l.367-.418c.234-.217.468-.435.735-.635a6.936 6.936 0 0 1 4.628-1.403c.82.05 1.604.233 2.34.568a6.98 6.98 0 0 1 3.007 2.54c.25.367.451.751.618 1.152.25.635.435 1.287.501 1.955.1 1.62-.233 3.057-1.036 4.344Z" fill="#fff" fill-opacity=".85"/><path d="m6.329 3.535-.067.066-.367.418a5.38 5.38 0 0 0-.702 1.003 6.884 6.884 0 0 0-.852 2.372c-.334-.418-.786-.685-1.32-.852a5.568 5.568 0 0 0-1.57-.217c-.084 0-.118-.017-.118-.117v-4.01c0-.084.017-.1.1-.1a9.12 9.12 0 0 1 1.504.117c.368.05.719.133 1.086.234.368.1.735.217 1.086.384.368.167.719.334 1.053.568.05.05.117.1.167.134Z" fill="#fff"/></svg>