<svg width="373" height="174" fill="none" xmlns="http://www.w3.org/2000/svg"><path fill="#fff" d="M0 .782h373v172.436H0z"/><g filter="url('#filter0_d_260_302')"><g clip-path="url('#clip0_260_302')"><g clip-path="url('#clip1_260_302')"><g filter="url('#filter1_i_260_302')"><path fill="#DEDEDE" d="M-1261 59.782H179v45h-1440z"/></g><g clip-path="url('#clip2_260_302')"><rect x="-1127" y="64.782" width="1201" height="28" rx="14" fill="#F1F3F4"/><path fill-rule="evenodd" clip-rule="evenodd" d="m61.362 76.622-3.393-.294-1.325-3.12c-.238-.568-1.052-.568-1.29 0l-1.325 3.127-3.386.287c-.617.05-.87.82-.4 1.227l2.573 2.23-.771 3.308a.7.7 0 0 0 1.045.757l2.909-1.752 2.91 1.76a.7.7 0 0 0 1.044-.758l-.771-3.316 2.573-2.23c.47-.406.224-1.177-.393-1.226ZM56 81.081l-2.636 1.591.701-3-2.328-2.02 3.071-.266L56 74.561l1.199 2.832 3.07.267-2.327 2.019.701 3-2.643-1.598Z" fill="#5F6368" fill-opacity=".4"/></g><path fill="#B7B9BC" d="M121 72h14v14h-14z"/><path fill="#fff" d="M123 74h7v10h-7z"/><path d="M104 80.306a1.885 1.885 0 0 1-1.904 1.904h-1.143v3.047a1.53 1.53 0 0 1-1.525 1.525h-2.895v-1.143a2.049 2.049 0 0 0-2.057-2.058 2.049 2.049 0 0 0-2.058 2.058v1.143h-2.894A1.53 1.53 0 0 1 88 85.257v-2.895h1.143a2.049 2.049 0 0 0 2.058-2.057 2.047 2.047 0 0 0-2.058-2.056H88v-2.895a1.53 1.53 0 0 1 1.524-1.525h3.048v-1.143c0-1.067.837-1.904 1.904-1.904 1.066 0 1.903.837 1.903 1.904v1.143h3.048a1.53 1.53 0 0 1 1.524 1.525V78.4h1.143c1.067 0 1.906.837 1.906 1.905Z" fill="#4C4E51"/></g><g clip-path="url('#clip3_260_302')"><path d="M-1246 25.782c0-4.418 3.58-8 8-8H186a8 8 0 0 1 8 8v34h-1440v-34Z" fill="#D6D8DD"/></g></g></g><path d="M103.023 87.06c.342 2.647.686 5.293 1.031 7.939l1.815-1.7 1.17 2.003 1.17-.668-1.168-2 2.405-.692c-2.142-1.625-4.282-3.253-6.423-4.881Z" fill="#000" fill-opacity=".5"/><g filter="url('#filter2_d_260_302')"><rect x="226.1" y="49.782" width="121.8" height="48" rx="2.4" fill="#2A2A2D"/><path d="m250.375 83.029 1.039-.186-.942-1.05.816-.454-1.032-.766.664-1.59h-1.451l.381-1.56-1.555.794.427-2.057-1.571 1.29-.167-1.986-1.187 1.787-.741-2.383-.74 2.383-1.187-1.787-.166 1.986-1.571-1.291.425 2.057-1.555-.794.382 1.561h-1.45l.663 1.59-1.031.766.814.454-.941 1.05 1.039.186-.714 1.352.921.342-.263.87.747-.163.075 1.072.62-.315.057.984.494-.164s.874.905 2.632.444a.687.687 0 0 0 .46-.387c.091-.214.061-.476-.525-.572-1.034-.17-2.463.03-2.982-1.264a.055.055 0 0 1-.002-.028.042.042 0 0 1 .015-.025.044.044 0 0 1 .026-.011c.01-.001.02 0 .028.005.638.36 2.132.685 2.257.005.133-.725-.506-.964-.866-1.162-.361-.199-1.999-.728-1.924-1.702.075-.974 1.142-.713 1.384-.52.217.143 2.37 1.462 2.37 1.462s-.781 1.032.508 1.032c1.289 0 .51-1.032.51-1.032s2.151-1.32 2.37-1.461c.241-.194 1.308-.454 1.383.52.076.972-1.564 1.5-1.924 1.7-.361.2-1 .438-.866 1.163.125.68 1.618.356 2.256-.005a.048.048 0 0 1 .055.006.058.058 0 0 1 .015.025c.002.01.001.02-.003.029-.518 1.292-1.948 1.094-2.981 1.263-.586.096-.617.356-.525.572a.68.68 0 0 0 .459.387c1.758.46 2.634-.444 2.634-.444l.494.164.056-.984.62.315.075-1.072.747.164-.263-.87.92-.341-.713-1.354Zm-6.694-1.377a.711.711 0 0 1-.653-.435.71.71 0 0 1 .153-.768.709.709 0 0 1 1.207.498.702.702 0 0 1-.707.705Zm2.75 0a.708.708 0 0 1-.693-.842.707.707 0 1 1 1.194.636.71.71 0 0 1-.501.206Z" fill="#AB9AFF"/><path d="M260.268 85.782h-1.045l2.349-6.527h1.138l2.349 6.527h-1.046l-1.845-5.342h-.051l-1.849 5.342Zm.176-2.556h3.391v.829h-3.391v-.83Zm5.481 2.556v-4.895h.921v.777h.051c.089-.263.246-.47.471-.621.228-.153.485-.23.772-.23a4.031 4.031 0 0 1 .405.023v.911a1.767 1.767 0 0 0-.204-.035 1.953 1.953 0 0 0-.294-.022c-.225 0-.426.048-.602.143a1.066 1.066 0 0 0-.567.96v2.989h-.953Zm8.942-4.405h-.994a1.537 1.537 0 0 0-.596-.972 1.651 1.651 0 0 0-.507-.255 1.982 1.982 0 0 0-.59-.086c-.376 0-.713.095-1.01.284-.295.19-.529.466-.701.832-.17.365-.255.811-.255 1.338 0 .532.085.98.255 1.345.172.366.407.642.704.829.298.187.632.28 1.004.28.206 0 .402-.027.586-.082.187-.058.356-.142.507-.252a1.542 1.542 0 0 0 .603-.96l.994.004a2.66 2.66 0 0 1-.309.886c-.151.267-.346.499-.583.695a2.642 2.642 0 0 1-.81.449c-.304.106-.635.16-.994.16a2.856 2.856 0 0 1-1.511-.402 2.809 2.809 0 0 1-1.045-1.157c-.253-.502-.38-1.1-.38-1.795 0-.697.128-1.295.383-1.794a2.787 2.787 0 0 1 1.045-1.154c.442-.27.945-.404 1.508-.404.346 0 .669.05.968.15.302.097.573.242.813.433.24.189.439.42.596.695.157.272.264.583.319.933Zm3.164 4.504c-.459 0-.86-.105-1.202-.316a2.126 2.126 0 0 1-.796-.883c-.19-.378-.284-.82-.284-1.325 0-.508.094-.952.284-1.333.189-.38.454-.675.796-.886.342-.21.743-.315 1.202-.315.459 0 .859.105 1.201.315.342.21.608.506.797.886.189.38.284.825.284 1.333 0 .505-.095.947-.284 1.325a2.129 2.129 0 0 1-.797.883c-.342.21-.742.316-1.201.316Zm.003-.8c.298 0 .544-.079.739-.236.196-.157.34-.367.434-.628.096-.261.143-.55.143-.864 0-.312-.047-.599-.143-.86a1.402 1.402 0 0 0-.434-.634c-.195-.16-.441-.24-.739-.24-.3 0-.548.08-.746.24-.195.159-.341.37-.436.634a2.526 2.526 0 0 0-.141.86c0 .315.047.603.141.864.095.261.241.47.436.628.198.157.446.236.746.236Zm4.295-2.206v2.907h-.952v-4.895h.914v.796h.061c.112-.259.289-.467.529-.624.242-.157.547-.236.914-.236.334 0 .626.07.877.21.251.138.445.344.583.618.138.275.207.614.207 1.017v3.114h-.953v-3c0-.354-.092-.631-.277-.83-.185-.203-.439-.304-.762-.304a1.19 1.19 0 0 0-.589.144c-.17.095-.305.236-.405.42a1.385 1.385 0 0 0-.147.663Zm5.364 0v2.907h-.953v-4.895h.915v.796h.061c.112-.259.289-.467.529-.624.242-.157.547-.236.914-.236.334 0 .626.07.877.21.251.138.445.344.583.618.138.275.207.614.207 1.017v3.114h-.953v-3c0-.354-.092-.631-.277-.83-.185-.203-.439-.304-.762-.304a1.19 1.19 0 0 0-.589.144c-.17.095-.305.236-.405.42a1.385 1.385 0 0 0-.147.663Zm6.521 3.006c-.482 0-.898-.103-1.246-.31a2.098 2.098 0 0 1-.803-.876c-.187-.378-.281-.821-.281-1.329 0-.501.094-.943.281-1.326.189-.382.452-.68.79-.895.34-.215.737-.322 1.192-.322a2.4 2.4 0 0 1 .803.137c.26.091.492.235.698.43.206.196.369.45.488.762.119.31.178.687.178 1.131v.338h-3.891v-.714h2.958c0-.25-.051-.472-.153-.666a1.158 1.158 0 0 0-.431-.462 1.199 1.199 0 0 0-.643-.169c-.268 0-.502.066-.702.198-.197.13-.35.3-.459.51a1.475 1.475 0 0 0-.159.678v.558c0 .327.057.606.172.835.117.23.28.405.488.526.208.12.451.179.73.179.18 0 .345-.026.494-.077a1.025 1.025 0 0 0 .634-.621l.902.162a1.63 1.63 0 0 1-.389.698 1.888 1.888 0 0 1-.698.462 2.61 2.61 0 0 1-.953.163Zm5.22 0c-.474 0-.882-.108-1.224-.322a2.133 2.133 0 0 1-.784-.896 2.978 2.978 0 0 1-.274-1.306c0-.498.093-.936.28-1.317a2.15 2.15 0 0 1 .791-.895c.34-.215.74-.322 1.201-.322.372 0 .703.069.995.207a1.74 1.74 0 0 1 1.026 1.437h-.928a1.115 1.115 0 0 0-.35-.592c-.181-.166-.423-.249-.727-.249-.266 0-.498.07-.698.21a1.353 1.353 0 0 0-.462.593c-.11.255-.166.557-.166.905 0 .357.054.665.163.925.108.259.261.46.459.602.199.142.434.213.704.213.181 0 .344-.032.491-.098.149-.068.273-.165.373-.29.102-.126.173-.277.213-.453h.928c-.034.317-.137.6-.309.848a1.779 1.779 0 0 1-.692.586 2.248 2.248 0 0 1-1.01.214Zm5.315-4.994v.764h-2.674v-.764h2.674Zm-1.957-1.173h.953v4.63c0 .186.028.325.083.418a.43.43 0 0 0 .213.188c.09.032.186.048.29.048.077 0 .144-.005.201-.016l.134-.025.172.787a1.858 1.858 0 0 1-.618.102 1.673 1.673 0 0 1-.701-.134 1.202 1.202 0 0 1-.526-.434c-.134-.195-.201-.44-.201-.736v-4.828ZM238.06 63.382V57.71h3.689v.862h-2.662v1.54h2.471v.861h-2.471v1.549h2.684v.861h-3.711Zm5.513-4.255.859 1.571.872-1.57h1.061l-1.282 2.127 1.304 2.127h-1.055l-.9-1.532-.892 1.532h-1.064l1.296-2.127-1.263-2.128h1.064Zm5.692 0v.776h-2.446v-.776h2.446Zm-1.842-1.019h1.003v3.994c0 .135.02.239.061.31.042.07.098.119.166.145a.637.637 0 0 0 .227.038c.063 0 .12-.004.172-.013.053-.01.094-.018.122-.025l.169.783a1.882 1.882 0 0 1-.59.1 1.636 1.636 0 0 1-.679-.113 1.056 1.056 0 0 1-.479-.394 1.174 1.174 0 0 1-.172-.664v-4.16Zm4.518 5.357c-.426 0-.794-.089-1.105-.266a1.809 1.809 0 0 1-.712-.759c-.166-.328-.249-.715-.249-1.16 0-.438.083-.822.249-1.153.168-.332.403-.59.704-.775.301-.187.655-.28 1.061-.28.262 0 .51.043.742.128.235.083.442.212.621.387.181.176.323.4.426.67.104.27.155.592.155.965v.307h-3.487v-.676h2.526a1.083 1.083 0 0 0-.124-.512.912.912 0 0 0-.341-.358.957.957 0 0 0-.504-.13.976.976 0 0 0-.54.15 1.026 1.026 0 0 0-.363.388 1.105 1.105 0 0 0-.13.523v.59c0 .248.045.46.135.637a.97.97 0 0 0 .38.405c.162.092.352.138.57.138.146 0 .278-.02.396-.06a.874.874 0 0 0 .308-.187.778.778 0 0 0 .197-.301l.936.105a1.46 1.46 0 0 1-.338.648 1.644 1.644 0 0 1-.632.427c-.256.1-.55.15-.881.15Zm3.743-2.576v2.493h-1.002v-4.255h.958v.723h.05c.098-.238.254-.427.468-.567.216-.14.483-.21.8-.21.294 0 .55.062.768.188.219.125.389.307.509.545.122.238.182.527.18.867v2.71h-1.002v-2.555c0-.284-.074-.507-.222-.667-.146-.161-.348-.241-.606-.241a.934.934 0 0 0-.469.116.806.806 0 0 0-.318.33 1.11 1.11 0 0 0-.114.523Zm7.113-.637-.914.1a.745.745 0 0 0-.135-.26.677.677 0 0 0-.255-.197.928.928 0 0 0-.394-.075.961.961 0 0 0-.526.136c-.14.09-.209.207-.208.351a.372.372 0 0 0 .136.302c.094.078.249.142.465.191l.726.156c.403.086.702.224.898.412.197.189.297.435.299.74a1.159 1.159 0 0 1-.236.709 1.504 1.504 0 0 1-.64.476 2.417 2.417 0 0 1-.941.172c-.521 0-.94-.109-1.258-.327a1.316 1.316 0 0 1-.568-.916l.978-.095a.688.688 0 0 0 .283.435c.144.098.331.147.562.147.238 0 .429-.049.573-.147.146-.098.219-.219.219-.363a.378.378 0 0 0-.141-.302c-.092-.079-.236-.14-.432-.182l-.726-.153c-.408-.085-.71-.228-.906-.43a1.062 1.062 0 0 1-.291-.77c-.001-.261.07-.488.214-.68.146-.194.348-.344.606-.45.261-.106.561-.16.901-.16.498 0 .891.106 1.177.319.288.212.466.5.534.861Zm.919 3.13v-4.255h1.002v4.255h-1.002Zm.504-4.858a.584.584 0 0 1-.41-.158.507.507 0 0 1-.172-.385c0-.152.057-.28.172-.385a.578.578 0 0 1 .41-.16c.16 0 .297.053.41.16a.504.504 0 0 1 .171.385.51.51 0 0 1-.171.385.58.58 0 0 1-.41.158Zm3.385 4.941c-.415 0-.775-.091-1.08-.274a1.86 1.86 0 0 1-.709-.767c-.166-.329-.249-.713-.249-1.153 0-.44.083-.824.249-1.155.168-.33.404-.587.709-.77.305-.182.665-.274 1.08-.274.416 0 .776.091 1.08.274.305.183.541.44.707.77.168.33.252.716.252 1.155 0 .44-.084.824-.252 1.153a1.843 1.843 0 0 1-.707.767c-.304.183-.664.274-1.08.274Zm.006-.803a.865.865 0 0 0 .565-.186c.151-.125.264-.293.338-.504.075-.21.113-.445.113-.703 0-.26-.038-.496-.113-.707a1.123 1.123 0 0 0-.338-.507.857.857 0 0 0-.565-.188.878.878 0 0 0-.576.188 1.136 1.136 0 0 0-.341.507 2.12 2.12 0 0 0-.111.707c0 .258.037.493.111.703.076.21.189.379.341.504a.887.887 0 0 0 .576.186Zm3.887-1.773v2.493h-1.003v-4.255h.958v.723h.05c.098-.238.254-.427.468-.567.216-.14.483-.21.801-.21.293 0 .549.062.767.188.22.125.39.307.51.545.122.238.182.527.18.867v2.71h-1.003v-2.555c0-.284-.074-.507-.222-.667-.145-.161-.348-.241-.606-.241a.928.928 0 0 0-.468.116.809.809 0 0 0-.319.33 1.11 1.11 0 0 0-.113.523Zm7.113-.637-.914.1a.748.748 0 0 0-.136-.26.677.677 0 0 0-.255-.197.926.926 0 0 0-.393-.075.965.965 0 0 0-.527.136c-.14.09-.209.207-.207.351a.368.368 0 0 0 .135.302c.095.078.25.142.466.191l.725.156c.403.086.702.224.898.412.197.189.297.435.299.74-.002.268-.08.504-.235.709a1.516 1.516 0 0 1-.64.476 2.422 2.422 0 0 1-.942.172c-.521 0-.94-.109-1.258-.327a1.315 1.315 0 0 1-.567-.916l.977-.095a.692.692 0 0 0 .283.435c.144.098.331.147.562.147.238 0 .43-.049.574-.147.145-.098.218-.219.218-.363a.378.378 0 0 0-.141-.302c-.092-.079-.236-.14-.432-.182l-.726-.153c-.408-.085-.71-.228-.905-.43a1.054 1.054 0 0 1-.291-.77 1.09 1.09 0 0 1 .213-.68c.146-.194.348-.344.607-.45.26-.106.56-.16.9-.16.498 0 .891.106 1.177.319.288.212.466.5.535.861Z" fill="#E2E3E6"/><path fill-rule="evenodd" clip-rule="evenodd" d="M332.5 79.982v-3h.5c.275 0 .5-.27.5-.6 0-.33-.225-.6-.5-.6h-5c-.275 0-.5.27-.5.6 0 .33.225.6.5.6h.5v3c0 .996-.67 1.8-1.5 1.8v1.2h2.985v4.2l.5.6.5-.6v-4.2H334v-1.2c-.83 0-1.5-.804-1.5-1.8Z" fill="#93B3F3"/><path d="M333.023 87.06c.342 2.647.686 5.293 1.031 7.939l1.815-1.7 1.17 2.003 1.17-.668-1.168-2 2.405-.692c-2.142-1.625-4.282-3.253-6.423-4.881Z" fill="#fff" fill-opacity=".5"/></g><path d="M203.354 77.635a.5.5 0 0 0 0-.707l-3.182-3.182a.501.501 0 0 0-.708.708l2.829 2.828-2.829 2.828a.5.5 0 0 0 .708.707l3.182-3.181ZM157 77.782h46v-1h-46v1Z" fill="#AB9AFF"/><path d="M20.93 128.782v-7.458l-1.626.984v-1.194l1.626-.972h1.086v8.64H20.93Zm4.868 0v-1.176h1.176v1.176h-1.176Zm10.594.18c-.86 0-1.59-.19-2.19-.57a3.664 3.664 0 0 1-1.374-1.584c-.312-.676-.468-1.458-.468-2.346 0-.888.156-1.67.468-2.346a3.664 3.664 0 0 1 1.374-1.584c.6-.38 1.33-.57 2.19-.57 1 0 1.822.254 2.466.762.648.508 1.094 1.192 1.338 2.052l-1.086.288c-.176-.644-.49-1.152-.942-1.524-.452-.372-1.044-.558-1.776-.558-.644 0-1.18.146-1.608.438-.428.292-.75.7-.966 1.224-.216.52-.326 1.126-.33 1.818-.004.688.102 1.294.318 1.818.216.52.54.928.972 1.224.432.292.97.438 1.614.438.732 0 1.324-.186 1.776-.558.452-.376.766-.884.942-1.524l1.086.288c-.244.856-.69 1.54-1.338 2.052-.644.508-1.466.762-2.466.762Zm5.24-.18v-8.82H42.7v8.82h-1.068Zm2.988-7.626v-1.104h1.068v1.104H44.62Zm0 7.626v-6.48h1.068v6.48H44.62Zm5.598.18c-.656 0-1.214-.146-1.674-.438a2.85 2.85 0 0 1-1.044-1.218c-.24-.516-.364-1.104-.372-1.764.008-.676.134-1.27.378-1.782a2.836 2.836 0 0 1 1.062-1.206c.46-.288 1.014-.432 1.662-.432.684 0 1.272.168 1.764.504.496.336.828.796.996 1.38l-1.056.318a1.736 1.736 0 0 0-.666-.876 1.815 1.815 0 0 0-1.05-.312c-.444 0-.81.104-1.098.312a1.808 1.808 0 0 0-.642.852c-.14.36-.212.774-.216 1.242.008.72.174 1.302.498 1.746.328.44.814.66 1.458.66.424 0 .776-.096 1.056-.288.28-.196.492-.478.636-.846l1.08.282c-.224.604-.574 1.066-1.05 1.386-.476.32-1.05.48-1.722.48Zm3.991-.18.006-8.64h1.08v5.28l2.718-3.12h1.386l-2.862 3.24 3.198 3.24h-1.494l-2.946-3.12v3.12h-1.086Zm12.144 0a4.802 4.802 0 0 1-1.14.09 2.53 2.53 0 0 1-.996-.222 1.432 1.432 0 0 1-.666-.648 1.917 1.917 0 0 1-.21-.774 29.804 29.804 0 0 1-.013-.894v-5.832h1.069v5.784c0 .264.001.49.005.678.008.188.05.35.126.486.144.256.372.406.684.45.316.044.697.032 1.14-.036v.918Zm-4.338-5.598v-.882h4.338v.882h-4.338Zm10.267 5.598v-3.246c0-.308-.028-.604-.084-.888a2.227 2.227 0 0 0-.282-.762 1.457 1.457 0 0 0-.54-.54c-.224-.132-.508-.198-.852-.198a1.88 1.88 0 0 0-.732.138 1.432 1.432 0 0 0-.558.408 1.98 1.98 0 0 0-.366.696 3.376 3.376 0 0 0-.126.978l-.702-.216c0-.628.112-1.166.336-1.614.228-.452.546-.798.954-1.038.412-.244.896-.366 1.452-.366.42 0 .778.066 1.074.198.296.132.542.308.738.528.196.216.35.46.462.732.112.268.19.542.234.822.048.276.072.538.072.786v3.582h-1.08Zm-4.62 0v-8.64h.96v4.77h.12v3.87h-1.08Zm10.068.18c-.636 0-1.192-.14-1.668-.42a2.942 2.942 0 0 1-1.104-1.182c-.264-.508-.396-1.1-.396-1.776 0-.708.13-1.32.39-1.836.26-.52.622-.92 1.086-1.2.468-.284 1.016-.426 1.644-.426.652 0 1.206.15 1.662.45.46.3.804.728 1.032 1.284.232.556.332 1.218.3 1.986h-1.08v-.384c-.012-.796-.174-1.39-.486-1.782-.312-.396-.776-.594-1.392-.594-.66 0-1.162.212-1.506.636-.344.424-.516 1.032-.516 1.824 0 .764.172 1.356.516 1.776.344.42.834.63 1.47.63.428 0 .8-.098 1.116-.294a2 2 0 0 0 .744-.846l1.026.354a2.906 2.906 0 0 1-1.14 1.332 3.16 3.16 0 0 1-1.698.468Zm-2.394-3.12v-.858h4.788v.858h-4.788Zm11.886 3.12c-.636 0-1.192-.14-1.668-.42a2.942 2.942 0 0 1-1.104-1.182c-.264-.508-.396-1.1-.396-1.776 0-.708.13-1.32.39-1.836.26-.52.622-.92 1.086-1.2.468-.284 1.016-.426 1.644-.426.652 0 1.206.15 1.662.45.46.3.804.728 1.032 1.284.232.556.332 1.218.3 1.986h-1.08v-.384c-.012-.796-.174-1.39-.486-1.782-.312-.396-.776-.594-1.392-.594-.66 0-1.162.212-1.506.636-.344.424-.516 1.032-.516 1.824 0 .764.172 1.356.516 1.776.344.42.834.63 1.47.63.428 0 .8-.098 1.116-.294a2 2 0 0 0 .744-.846l1.026.354a2.906 2.906 0 0 1-1.14 1.332 3.16 3.16 0 0 1-1.698.468Zm-2.394-3.12v-.858h4.788v.858h-4.788Zm5.722 2.94 2.478-3.276-2.424-3.204h1.272l1.776 2.376 1.758-2.376h1.272l-2.424 3.204 2.484 3.276h-1.278l-1.812-2.448-1.824 2.448H90.55Zm10.771 0a4.802 4.802 0 0 1-1.14.09 2.53 2.53 0 0 1-.996-.222 1.432 1.432 0 0 1-.666-.648 1.917 1.917 0 0 1-.21-.774 29.804 29.804 0 0 1-.012-.894v-5.832h1.068v5.784c0 .264.002.49.006.678.008.188.05.35.126.486.144.256.372.406.684.45.316.044.696.032 1.14-.036v.918Zm-4.338-5.598v-.882h4.338v.882h-4.338Zm8.192 5.778c-.636 0-1.192-.14-1.668-.42a2.942 2.942 0 0 1-1.104-1.182c-.264-.508-.396-1.1-.396-1.776 0-.708.13-1.32.39-1.836.26-.52.622-.92 1.086-1.2.468-.284 1.016-.426 1.644-.426.652 0 1.206.15 1.662.45.46.3.804.728 1.032 1.284.232.556.332 1.218.3 1.986h-1.08v-.384c-.012-.796-.174-1.39-.486-1.782-.312-.396-.776-.594-1.392-.594-.66 0-1.162.212-1.506.636-.344.424-.516 1.032-.516 1.824 0 .764.172 1.356.516 1.776.344.42.834.63 1.47.63.428 0 .8-.098 1.116-.294a2 2 0 0 0 .744-.846l1.026.354a2.906 2.906 0 0 1-1.14 1.332 3.16 3.16 0 0 1-1.698.468Zm-2.394-3.12v-.858h4.788v.858h-4.788Zm11.114 2.94v-3.246c0-.308-.028-.604-.084-.888a2.227 2.227 0 0 0-.282-.762 1.457 1.457 0 0 0-.54-.54c-.224-.132-.508-.198-.852-.198a1.88 1.88 0 0 0-.732.138 1.432 1.432 0 0 0-.558.408 1.98 1.98 0 0 0-.366.696 3.376 3.376 0 0 0-.126.978l-.702-.216c0-.628.112-1.166.336-1.614.228-.452.546-.798.954-1.038.412-.244.896-.366 1.452-.366.42 0 .778.066 1.074.198.296.132.542.308.738.528.196.216.35.46.462.732.112.268.19.542.234.822.048.276.072.538.072.786v3.582h-1.08Zm-4.62 0v-6.48h.96v1.734h.12v4.746h-1.08Zm9.708.174c-.772 0-1.406-.168-1.902-.504-.492-.34-.794-.814-.906-1.422l1.092-.174c.088.352.29.632.606.84.316.204.708.306 1.176.306.444 0 .792-.092 1.044-.276a.88.88 0 0 0 .378-.75.722.722 0 0 0-.126-.444c-.084-.116-.258-.224-.522-.324-.26-.1-.654-.22-1.182-.36-.572-.152-1.022-.31-1.35-.474-.328-.164-.562-.354-.702-.57a1.414 1.414 0 0 1-.21-.786c0-.38.104-.712.312-.996.208-.288.498-.51.87-.666.376-.156.812-.234 1.308-.234.492 0 .932.078 1.32.234.388.156.7.378.936.666.24.284.382.616.426.996l-1.092.198a1.178 1.178 0 0 0-.504-.822c-.28-.2-.642-.306-1.086-.318-.42-.016-.762.058-1.026.222-.26.164-.39.386-.39.666 0 .156.048.29.144.402.1.112.282.218.546.318.268.1.656.214 1.164.342.572.144 1.022.302 1.35.474.332.168.568.368.708.6.14.228.21.51.21.846 0 .624-.23 1.116-.69 1.476-.46.356-1.094.534-1.902.534Zm4.036-7.8v-1.104h1.068v1.104h-1.068Zm0 7.626v-6.48h1.068v6.48h-1.068Zm5.628.18c-.644 0-1.2-.146-1.668-.438a2.902 2.902 0 0 1-1.074-1.212c-.252-.516-.378-1.108-.378-1.776 0-.68.128-1.276.384-1.788s.618-.91 1.086-1.194c.468-.288 1.018-.432 1.65-.432.648 0 1.206.146 1.674.438.468.288.826.69 1.074 1.206.252.512.378 1.102.378 1.77 0 .676-.126 1.272-.378 1.788a2.897 2.897 0 0 1-1.08 1.206c-.468.288-1.024.432-1.668.432Zm0-1.014c.672 0 1.172-.224 1.5-.672.328-.448.492-1.028.492-1.74 0-.732-.166-1.314-.498-1.746-.332-.436-.83-.654-1.494-.654-.452 0-.824.102-1.116.306-.292.204-.51.486-.654.846-.144.36-.216.776-.216 1.248 0 .728.168 1.312.504 1.752.336.44.83.66 1.482.66Zm9.061.834v-3.246c0-.308-.028-.604-.084-.888a2.227 2.227 0 0 0-.282-.762 1.457 1.457 0 0 0-.54-.54c-.224-.132-.508-.198-.852-.198a1.88 1.88 0 0 0-.732.138 1.432 1.432 0 0 0-.558.408 1.98 1.98 0 0 0-.366.696 3.376 3.376 0 0 0-.126.978l-.702-.216c0-.628.112-1.166.336-1.614.228-.452.546-.798.954-1.038.412-.244.896-.366 1.452-.366.42 0 .778.066 1.074.198.296.132.542.308.738.528.196.216.35.46.462.732.112.268.19.542.234.822.048.276.072.538.072.786v3.582h-1.08Zm-4.62 0v-6.48h.96v1.734h.12v4.746h-1.08Zm9.782-7.626v-1.104h1.068v1.104h-1.068Zm0 7.626v-6.48h1.068v6.48h-1.068Zm5.598.18c-.656 0-1.214-.146-1.674-.438a2.85 2.85 0 0 1-1.044-1.218c-.24-.516-.364-1.104-.372-1.764.008-.676.134-1.27.378-1.782a2.836 2.836 0 0 1 1.062-1.206c.46-.288 1.014-.432 1.662-.432.684 0 1.272.168 1.764.504.496.336.828.796.996 1.38l-1.056.318a1.736 1.736 0 0 0-.666-.876 1.815 1.815 0 0 0-1.05-.312c-.444 0-.81.104-1.098.312a1.808 1.808 0 0 0-.642.852c-.14.36-.212.774-.216 1.242.008.72.174 1.302.498 1.746.328.44.814.66 1.458.66.424 0 .776-.096 1.056-.288.28-.196.492-.478.636-.846l1.08.282c-.224.604-.574 1.066-1.05 1.386-.476.32-1.05.48-1.722.48Zm6.581 0c-.644 0-1.2-.146-1.668-.438a2.902 2.902 0 0 1-1.074-1.212c-.252-.516-.378-1.108-.378-1.776 0-.68.128-1.276.384-1.788s.618-.91 1.086-1.194c.468-.288 1.018-.432 1.65-.432.648 0 1.206.146 1.674.438.468.288.826.69 1.074 1.206.252.512.378 1.102.378 1.77 0 .676-.126 1.272-.378 1.788a2.897 2.897 0 0 1-1.08 1.206c-.468.288-1.024.432-1.668.432Zm0-1.014c.672 0 1.172-.224 1.5-.672.328-.448.492-1.028.492-1.74 0-.732-.166-1.314-.498-1.746-.332-.436-.83-.654-1.494-.654-.452 0-.824.102-1.116.306-.292.204-.51.486-.654.846-.144.36-.216.776-.216 1.248 0 .728.168 1.312.504 1.752.336.44.83.66 1.482.66Zm9.061.834v-3.246c0-.308-.028-.604-.084-.888a2.227 2.227 0 0 0-.282-.762 1.457 1.457 0 0 0-.54-.54c-.224-.132-.508-.198-.852-.198a1.88 1.88 0 0 0-.732.138 1.432 1.432 0 0 0-.558.408 1.98 1.98 0 0 0-.366.696 3.376 3.376 0 0 0-.126.978l-.702-.216c0-.628.112-1.166.336-1.614.228-.452.546-.798.954-1.038.412-.244.896-.366 1.452-.366.42 0 .778.066 1.074.198.296.132.542.308.738.528.196.216.35.46.462.732.112.268.19.542.234.822.048.276.072.538.072.786v3.582h-1.08Zm-4.62 0v-6.48h.96v1.734h.12v4.746h-1.08ZM242 128.776l.006-.96 3.834-3.45c.32-.288.534-.56.642-.816.112-.26.168-.526.168-.798 0-.332-.076-.632-.228-.9a1.7 1.7 0 0 0-1.512-.87 1.779 1.779 0 0 0-1.554.888 1.7 1.7 0 0 0-.222.876h-1.092c0-.544.126-1.024.378-1.44.252-.42.594-.748 1.026-.984.436-.24.93-.36 1.482-.36.536 0 1.016.124 1.44.372.424.244.758.578 1.002 1.002.248.42.372.896.372 1.428 0 .376-.048.702-.144.978a2.368 2.368 0 0 1-.432.768 7.53 7.53 0 0 1-.738.744l-3.186 2.862-.138-.36h4.638v1.02H242Zm7.634.006v-1.176h1.176v1.176h-1.176Zm7.042 0v-8.64h3.414c.084 0 .184.004.3.012.116.004.228.016.336.036.468.072.86.232 1.176.48.32.248.56.562.72.942.16.376.24.794.24 1.254 0 .456-.082.874-.246 1.254-.16.376-.4.69-.72.942-.316.248-.706.408-1.17.48a4.323 4.323 0 0 1-.636.048h-2.346v3.192h-1.068Zm1.068-4.206h2.31c.076 0 .162-.004.258-.012.1-.008.194-.022.282-.042.276-.064.5-.18.672-.348.176-.172.304-.372.384-.6.08-.232.12-.468.12-.708 0-.24-.04-.474-.12-.702a1.537 1.537 0 0 0-.384-.606 1.322 1.322 0 0 0-.672-.348 1.26 1.26 0 0 0-.282-.042 3.139 3.139 0 0 0-.258-.012h-2.31v3.42Zm6.435-3.42v-1.104h1.068v1.104h-1.068Zm0 7.626v-6.48h1.068v6.48h-1.068Zm7.482 0v-3.246c0-.308-.028-.604-.084-.888a2.227 2.227 0 0 0-.282-.762 1.457 1.457 0 0 0-.54-.54c-.224-.132-.508-.198-.852-.198a1.88 1.88 0 0 0-.732.138 1.432 1.432 0 0 0-.558.408 1.98 1.98 0 0 0-.366.696 3.376 3.376 0 0 0-.126.978l-.702-.216c0-.628.112-1.166.336-1.614.228-.452.546-.798.954-1.038.412-.244.896-.366 1.452-.366.42 0 .778.066 1.074.198.296.132.542.308.738.528.196.216.35.46.462.732.112.268.19.542.234.822.048.276.072.538.072.786v3.582h-1.08Zm-4.62 0v-6.48h.96v1.734h.12v4.746h-1.08Zm9.062 0 2.892-8.64h1.488l2.892 8.64h-1.11l-2.706-8.016h.336l-2.682 8.016h-1.11Zm1.392-2.022v-1.002h4.488v1.002h-4.488Zm6.954 2.022v-6.48h.954v1.566l-.156-.204c.076-.2.174-.384.294-.552.124-.168.262-.306.414-.414.168-.136.358-.24.57-.312.212-.072.428-.114.648-.126a2.08 2.08 0 0 1 .618.042v1.002a2.025 2.025 0 0 0-.738-.048 1.5 1.5 0 0 0-.744.294c-.208.148-.37.328-.486.54-.112.212-.19.442-.234.69a4.218 4.218 0 0 0-.066.75v3.252h-1.074Zm8.029.18c-.86 0-1.59-.19-2.19-.57a3.664 3.664 0 0 1-1.374-1.584c-.312-.676-.468-1.458-.468-2.346 0-.888.156-1.67.468-2.346a3.664 3.664 0 0 1 1.374-1.584c.6-.38 1.33-.57 2.19-.57 1 0 1.822.254 2.466.762.648.508 1.094 1.192 1.338 2.052l-1.086.288c-.176-.644-.49-1.152-.942-1.524-.452-.372-1.044-.558-1.776-.558-.644 0-1.18.146-1.608.438-.428.292-.75.7-.966 1.224-.216.52-.326 1.126-.33 1.818-.004.688.102 1.294.318 1.818.216.52.54.928.972 1.224.432.292.97.438 1.614.438.732 0 1.324-.186 1.776-.558.452-.376.766-.884.942-1.524l1.086.288c-.244.856-.69 1.54-1.338 2.052-.644.508-1.466.762-2.466.762Zm7.88 0c-.644 0-1.2-.146-1.668-.438a2.902 2.902 0 0 1-1.074-1.212c-.252-.516-.378-1.108-.378-1.776 0-.68.128-1.276.384-1.788s.618-.91 1.086-1.194c.468-.288 1.018-.432 1.65-.432.648 0 1.206.146 1.674.438.468.288.826.69 1.074 1.206.252.512.378 1.102.378 1.77 0 .676-.126 1.272-.378 1.788a2.897 2.897 0 0 1-1.08 1.206c-.468.288-1.024.432-1.668.432Zm0-1.014c.672 0 1.172-.224 1.5-.672.328-.448.492-1.028.492-1.74 0-.732-.166-1.314-.498-1.746-.332-.436-.83-.654-1.494-.654-.452 0-.824.102-1.116.306-.292.204-.51.486-.654.846-.144.36-.216.776-.216 1.248 0 .728.168 1.312.504 1.752.336.44.83.66 1.482.66Zm9.061.834v-3.246c0-.308-.028-.604-.084-.888a2.227 2.227 0 0 0-.282-.762 1.457 1.457 0 0 0-.54-.54c-.224-.132-.508-.198-.852-.198a1.88 1.88 0 0 0-.732.138 1.432 1.432 0 0 0-.558.408 1.98 1.98 0 0 0-.366.696 3.376 3.376 0 0 0-.126.978l-.702-.216c0-.628.112-1.166.336-1.614.228-.452.546-.798.954-1.038.412-.244.896-.366 1.452-.366.42 0 .778.066 1.074.198.296.132.542.308.738.528.196.216.35.46.462.732.112.268.19.542.234.822.048.276.072.538.072.786v3.582h-1.08Zm-4.62 0v-6.48h.96v1.734h.12v4.746h-1.08Zm11.874 0v-3.246c0-.308-.028-.604-.084-.888a2.227 2.227 0 0 0-.282-.762 1.457 1.457 0 0 0-.54-.54c-.224-.132-.508-.198-.852-.198a1.88 1.88 0 0 0-.732.138 1.432 1.432 0 0 0-.558.408 1.98 1.98 0 0 0-.366.696 3.376 3.376 0 0 0-.126.978l-.702-.216c0-.628.112-1.166.336-1.614.228-.452.546-.798.954-1.038.412-.244.896-.366 1.452-.366.42 0 .778.066 1.074.198.296.132.542.308.738.528.196.216.35.46.462.732.112.268.19.542.234.822.048.276.072.538.072.786v3.582h-1.08Zm-4.62 0v-6.48h.96v1.734h.12v4.746h-1.08Zm10.009.18c-.636 0-1.192-.14-1.668-.42a2.942 2.942 0 0 1-1.104-1.182c-.264-.508-.396-1.1-.396-1.776 0-.708.13-1.32.39-1.836.26-.52.622-.92 1.086-1.2.468-.284 1.016-.426 1.644-.426.652 0 1.206.15 1.662.45.46.3.804.728 1.032 1.284.232.556.332 1.218.3 1.986h-1.08v-.384c-.012-.796-.174-1.39-.486-1.782-.312-.396-.776-.594-1.392-.594-.66 0-1.162.212-1.506.636-.344.424-.516 1.032-.516 1.824 0 .764.172 1.356.516 1.776.344.42.834.63 1.47.63.428 0 .8-.098 1.116-.294a2 2 0 0 0 .744-.846l1.026.354a2.906 2.906 0 0 1-1.14 1.332 3.16 3.16 0 0 1-1.698.468Zm-2.394-3.12v-.858h4.788v.858h-4.788Zm9.406 3.12c-.656 0-1.214-.146-1.674-.438a2.85 2.85 0 0 1-1.044-1.218c-.24-.516-.364-1.104-.372-1.764.008-.676.134-1.27.378-1.782a2.836 2.836 0 0 1 1.062-1.206c.46-.288 1.014-.432 1.662-.432.684 0 1.272.168 1.764.504.496.336.828.796.996 1.38l-1.056.318a1.736 1.736 0 0 0-.666-.876 1.815 1.815 0 0 0-1.05-.312c-.444 0-.81.104-1.098.312a1.808 1.808 0 0 0-.642.852c-.14.36-.212.774-.216 1.242.008.72.174 1.302.498 1.746.328.44.814.66 1.458.66.424 0 .776-.096 1.056-.288.28-.196.492-.478.636-.846l1.08.282c-.224.604-.574 1.066-1.05 1.386-.476.32-1.05.48-1.722.48Zm7.614-.18a4.802 4.802 0 0 1-1.14.09 2.53 2.53 0 0 1-.996-.222 1.432 1.432 0 0 1-.666-.648 1.917 1.917 0 0 1-.21-.774 29.804 29.804 0 0 1-.012-.894v-5.832h1.068v5.784c0 .264.002.49.006.678.008.188.05.35.126.486.144.256.372.406.684.45.316.044.696.032 1.14-.036v.918Zm-4.338-5.598v-.882h4.338v.882h-4.338Z" fill="#2A2A2D"/><defs><clipPath id="clip0_260_302"><rect x="45" y="49.782" width="98" height="47" rx="2" fill="#fff"/></clipPath><clipPath id="clip1_260_302"><path fill="#fff" transform="translate(-1261 59.782)" d="M0 0h1440v38H0z"/></clipPath><clipPath id="clip2_260_302"><path fill="#fff" transform="translate(-1127 64.782)" d="M0 0h1201v28H0z"/></clipPath><clipPath id="clip3_260_302"><path fill="#fff" transform="translate(-1246 17.782)" d="M0 0h1440v42H0z"/></clipPath><filter id="filter0_d_260_302" x="41" y="47.782" width="106" height="55" filterUnits="userSpaceOnUse" color-interpolation-filters="sRGB"><feFlood flood-opacity="0" result="BackgroundImageFix"/><feColorMatrix in="SourceAlpha" values="0 0 0 0 0 0 0 0 0 0 0 0 0 0 0 0 0 0 127 0" result="hardAlpha"/><feOffset dy="2"/><feGaussianBlur stdDeviation="2"/><feComposite in2="hardAlpha" operator="out"/><feColorMatrix values="0 0 0 0 0 0 0 0 0 0 0 0 0 0 0 0 0 0 0.25 0"/><feBlend in2="BackgroundImageFix" result="effect1_dropShadow_260_302"/><feBlend in="SourceGraphic" in2="effect1_dropShadow_260_302" result="shape"/></filter><filter id="filter1_i_260_302" x="-1261" y="59.782" width="1440" height="45" filterUnits="userSpaceOnUse" color-interpolation-filters="sRGB"><feFlood flood-opacity="0" result="BackgroundImageFix"/><feBlend in="SourceGraphic" in2="BackgroundImageFix" result="shape"/><feColorMatrix in="SourceAlpha" values="0 0 0 0 0 0 0 0 0 0 0 0 0 0 0 0 0 0 127 0" result="hardAlpha"/><feOffset dy="-1"/><feComposite in2="hardAlpha" operator="arithmetic" k2="-1" k3="1"/><feColorMatrix values="0 0 0 0 0.854902 0 0 0 0 0.862745 0 0 0 0 0.878431 0 0 0 1 0"/><feBlend in2="shape" result="effect1_innerShadow_260_302"/></filter><filter id="filter2_d_260_302" x="222.1" y="47.782" width="129.8" height="56" filterUnits="userSpaceOnUse" color-interpolation-filters="sRGB"><feFlood flood-opacity="0" result="BackgroundImageFix"/><feColorMatrix in="SourceAlpha" values="0 0 0 0 0 0 0 0 0 0 0 0 0 0 0 0 0 0 127 0" result="hardAlpha"/><feOffset dy="2"/><feGaussianBlur stdDeviation="2"/><feComposite in2="hardAlpha" operator="out"/><feColorMatrix values="0 0 0 0 0 0 0 0 0 0 0 0 0 0 0 0 0 0 0.25 0"/><feBlend in2="BackgroundImageFix" result="effect1_dropShadow_260_302"/><feBlend in="SourceGraphic" in2="effect1_dropShadow_260_302" result="shape"/></filter></defs></svg>